<svg width="13" height="18" viewBox="0 0 13 18" fill="none" xmlns="http://www.w3.org/2000/svg">
<path fill-rule="evenodd" clip-rule="evenodd" d="M4.875 1.71429C4.64645 1.71429 4.43511 1.80569 4.28556 1.95557C4.13742 2.10403 4.0625 2.29572 4.0625 2.48571V3.25714H8.9375V2.48571C8.9375 2.29572 8.86257 2.10403 8.71444 1.95557C8.56489 1.80569 8.35355 1.71429 8.125 1.71429H4.875ZM10.5625 3.25714V2.48571C10.5625 1.81186 10.295 1.17508 9.83366 0.712712C9.37372 0.25176 8.7584 0 8.125 0H4.875C4.2416 0 3.62628 0.25176 3.16634 0.712712C2.70499 1.17508 2.4375 1.81186 2.4375 2.48571V3.25714H0.8125C0.363769 3.25714 0 3.6409 0 4.11429V15.5143C0 16.1881 0.267485 16.8249 0.728842 17.2873C1.18878 17.7482 1.8041 18 2.4375 18H10.5625C11.1959 18 11.8112 17.7482 12.2712 17.2873C12.7325 16.8249 13 16.1881 13 15.5143V4.11429C13 3.6409 12.6362 3.25714 12.1875 3.25714H10.5625ZM1.625 4.97143V15.5143C1.625 15.7043 1.69992 15.896 1.84806 16.0444C1.99761 16.1943 2.20895 16.2857 2.4375 16.2857H10.5625C10.7911 16.2857 11.0024 16.1943 11.1519 16.0444C11.3001 15.896 11.375 15.7043 11.375 15.5143V4.97143H1.625Z" fill="#002677"/>
</svg>
