<svg width="157" height="34" viewBox="0 0 157 34" fill="none" xmlns="http://www.w3.org/2000/svg">
<path d="M15.96 24.44C15.96 26.44 14.64 27.48 12.36 27.48H7.32V21.28H12.28C14.56 21.28 15.96 22.44 15.96 24.44ZM15.28 13.36C15.28 15.28 14.04 16.28 11.8 16.28H7.32V10.4H11.8C14.04 10.4 15.28 11.44 15.28 13.36ZM22.88 25.36C22.88 22.16 20.76 19.28 17.48 18.6C20.2 17.8 22.24 15.6 22.24 12.2C22.24 7.76 18.84 4.92 13.12 4.92H0.48V33H13.56C19.48 33 22.88 30 22.88 25.36ZM26.8472 33H33.6872V3.4H26.8472V33ZM38.6441 33H45.4841V10.68H38.6441V33ZM42.0841 8.36C44.4841 8.36 46.1241 6.72 46.1241 4.68C46.1241 2.6 44.4841 0.959998 42.0841 0.959998C39.6441 0.959998 38.0041 2.6 38.0041 4.68C38.0041 6.72 39.6441 8.36 42.0841 8.36ZM66.3209 10.68H49.2809V16.32H58.4809L49.2009 27.56V33H66.5209V27.36H56.8409L66.3209 16.12V10.68ZM86.1647 10.68H69.1247V16.32H78.3247L69.0447 27.56V33H86.3647V27.36H76.6847L86.1647 16.12V10.68ZM88.7684 21.8C88.7684 28.84 93.1284 33.32 98.5684 33.32C101.888 33.32 104.248 31.8 105.488 29.84V33H112.328V10.68H105.488V13.84C104.288 11.88 101.928 10.36 98.6084 10.36C93.1284 10.36 88.7684 14.76 88.7684 21.8ZM105.488 21.84C105.488 25.4 103.208 27.36 100.608 27.36C98.0484 27.36 95.7284 25.36 95.7284 21.8C95.7284 18.24 98.0484 16.32 100.608 16.32C103.208 16.32 105.488 18.28 105.488 21.84ZM124.117 22.64C124.117 18.8 125.997 17.68 129.237 17.68H131.117V10.44C128.117 10.44 125.677 12.04 124.117 14.4V10.68H117.277V33H124.117V22.64ZM133.026 21.8C133.026 28.84 137.386 33.32 142.866 33.32C146.146 33.32 148.506 31.84 149.746 29.8V33H156.586V3.4H149.746V13.76C148.386 11.72 145.826 10.36 142.866 10.36C137.386 10.36 133.026 14.76 133.026 21.8ZM149.746 21.84C149.746 25.4 147.466 27.36 144.866 27.36C142.306 27.36 139.986 25.36 139.986 21.8C139.986 18.24 142.306 16.32 144.866 16.32C147.466 16.32 149.746 18.28 149.746 21.84Z" fill="#FFA10A"/>
</svg>
