<svg width="689" height="472" viewBox="0 0 689 472" fill="none" xmlns="http://www.w3.org/2000/svg">
<g filter="url(#filter0_d)">
<path d="M192.72 142.006C204.229 104.291 209.984 85.4332 225.705 75.3155C241.425 65.1979 260.972 67.7713 300.067 72.9183L438.767 91.1784C477.862 96.3253 497.409 98.8988 505.979 112.214C514.548 125.53 508.794 144.387 497.285 182.102L472.162 264.43C470.798 268.898 470.117 271.132 468.715 273.086C467.314 275.041 465.305 276.559 461.288 279.595L334.491 375.416C329.354 379.299 326.785 381.24 323.834 382.068C320.884 382.895 317.922 382.506 311.999 381.726L209.932 368.288C170.838 363.141 151.29 360.568 142.721 347.252C134.151 333.937 139.905 315.079 151.415 277.364L192.72 142.006Z" fill="#FFBE55"/>
<g clip-path="url(#clip0)">
<g clip-path="url(#clip1)">
<path fill-rule="evenodd" clip-rule="evenodd" d="M347.221 230.894C345.812 230.681 344.741 229.453 344.755 227.979C344.776 226.365 346.087 225.071 347.694 225.089C351.76 225.128 355.289 222.111 355.907 218.064C356.513 214.05 354.162 210.224 350.313 208.978C348.79 208.485 347.954 206.839 348.448 205.304C348.946 203.77 350.571 202.937 352.107 203.424C358.669 205.552 362.684 212.077 361.648 218.938C360.591 225.843 354.563 230.994 347.623 230.927C347.486 230.926 347.351 230.913 347.221 230.894" fill="#F9F9F9"/>
<mask id="mask0" mask-type="alpha" maskUnits="userSpaceOnUse" x="347" y="238" width="18" height="21">
<path fill-rule="evenodd" clip-rule="evenodd" d="M350.321 238.663L364.845 240.855L362.215 258.285L347.691 256.092L350.321 238.663Z" fill="white"/>
</mask>
<g mask="url(#mask0)">
<path fill-rule="evenodd" clip-rule="evenodd" d="M354.9 257.181C353.744 257.006 352.76 256.133 352.497 254.917C352.155 253.342 353.154 251.785 354.721 251.443C357.466 250.842 357.632 249.745 357.711 249.218C357.965 247.533 356.011 246.033 351.903 244.768C350.373 244.293 349.511 242.663 349.983 241.117C350.455 239.575 352.068 238.744 353.618 239.186C362.683 241.983 363.971 246.656 363.453 250.085C363.137 252.178 361.741 255.875 355.951 257.146C355.595 257.222 355.241 257.232 354.9 257.181" fill="#F9F9F9"/>
</g>
<path fill-rule="evenodd" clip-rule="evenodd" d="M322.064 241.924C312.968 240.551 301.953 240.038 301.146 245.387C300.332 250.778 311.006 253.546 320.102 254.919C329.198 256.292 340.208 256.808 341.014 251.471C341.829 246.068 331.159 243.297 322.064 241.924M319.231 260.691C312.88 259.732 293.548 256.814 295.403 244.52C297.251 232.276 316.584 235.194 322.935 236.152C329.286 237.111 348.614 240.028 346.756 252.338C344.91 264.567 326.256 261.751 319.231 260.691" fill="#F9F9F9"/>
<path fill-rule="evenodd" clip-rule="evenodd" d="M328.112 201.851C321.634 200.874 315.567 205.377 314.584 211.888C314.097 215.042 314.853 218.174 316.718 220.735C318.583 223.295 321.329 224.973 324.451 225.456L324.111 228.356L324.547 225.47C331.024 226.448 337.095 221.949 338.078 215.434C339.061 208.923 334.589 202.829 328.112 201.851M323.676 231.242L323.572 231.227C318.904 230.506 314.806 228.006 312.031 224.187C309.248 220.371 308.118 215.69 308.844 211.01C310.305 201.328 319.34 194.624 328.983 196.079C338.63 197.535 345.283 206.608 343.82 216.301C342.357 225.994 333.323 232.698 323.676 231.242" fill="#F9F9F9"/>
<path fill-rule="evenodd" clip-rule="evenodd" d="M301.278 223.959C301.148 223.94 301.015 223.912 300.884 223.872C294.234 221.889 289.999 215.189 291.025 208.287C292.061 201.418 297.823 196.369 304.721 196.272C306.371 196.262 307.638 197.543 307.662 199.148C307.681 200.761 306.397 202.086 304.796 202.108C300.751 202.163 297.375 205.125 296.768 209.146C296.166 213.187 298.647 217.116 302.54 218.274C304.08 218.731 304.951 220.354 304.494 221.902C304.073 223.315 302.687 224.172 301.278 223.959" fill="#F9F9F9"/>
<path fill-rule="evenodd" clip-rule="evenodd" d="M286.187 246.81C285.846 246.758 285.511 246.645 285.193 246.467C280.032 243.539 279.79 239.594 280.105 237.505C280.622 234.08 283.232 229.991 292.722 229.995C294.334 230.034 295.623 231.299 295.622 232.912C295.617 234.529 294.312 235.831 292.71 235.834C288.412 235.83 286.102 236.686 285.847 238.371C285.768 238.899 285.603 239.991 288.052 241.38C289.448 242.17 289.942 243.952 289.151 245.356C288.541 246.441 287.343 246.984 286.187 246.81" fill="#F9F9F9"/>
</g>
</g>
<path fill-rule="evenodd" clip-rule="evenodd" d="M457.246 282.819L334.688 375.438C333.383 376.424 332.244 377.284 331.223 378.033C339.485 369.031 339.749 358.015 340.036 346.04C340.458 328.394 340.93 308.667 367.124 290.237C389.87 274.232 408.77 277.666 425.849 280.769C439.114 283.179 451.282 285.389 463.299 278.136L457.246 282.819ZM464.015 277.692C463.776 277.844 463.538 277.991 463.299 278.136L466.692 275.51C465.956 276.167 465.082 276.869 464.015 277.692Z" fill="white"/>
</g>
<defs>
<filter id="filter0_d" x="0.608398" y="0.392456" width="687.483" height="630.137" filterUnits="userSpaceOnUse" color-interpolation-filters="sRGB">
<feFlood flood-opacity="0" result="BackgroundImageFix"/>
<feColorMatrix in="SourceAlpha" type="matrix" values="0 0 0 0 0 0 0 0 0 0 0 0 0 0 0 0 0 0 127 0"/>
<feOffset dx="20" dy="90"/>
<feGaussianBlur stdDeviation="79"/>
<feColorMatrix type="matrix" values="0 0 0 0 1 0 0 0 0 0.631373 0 0 0 0 0.0392157 0 0 0 0.2 0"/>
<feBlend mode="normal" in2="BackgroundImageFix" result="effect1_dropShadow"/>
<feBlend mode="normal" in="SourceGraphic" in2="effect1_dropShadow" result="shape"/>
</filter>
<clipPath id="clip0">
<rect width="108.421" height="108.994" fill="white" transform="matrix(0.991445 0.130526 -0.291871 0.956458 286.498 170.519)"/>
</clipPath>
<clipPath id="clip1">
<rect width="92.9168" height="93.3977" fill="white" transform="translate(285.802 173.819) rotate(8.58302)"/>
</clipPath>
</defs>
</svg>
