<svg width="616" height="616" viewBox="0 0 616 616" fill="none" xmlns="http://www.w3.org/2000/svg">
<path d="M419.513 108.581C434.388 108.753 449.264 111.952 462.741 118.301C472.307 122.806 480.993 128.71 487.946 136.176C501.852 151.114 507.344 172.976 497.853 189.386C489.931 203.08 472.5 212.896 472.295 228.661C472.05 247.027 495.355 259.268 515.666 263.066C535.983 266.859 558.763 267.589 574.015 280.679C587.139 291.944 590.641 309.991 586.278 325.094C581.915 340.203 570.872 352.774 558.575 363.52C527.764 390.447 488.22 408.151 447.689 422.114C362.048 451.608 269.158 465.993 175.594 464.236C152.232 463.797 126.143 461.276 109.762 445.522C93.2441 429.643 92.7137 404.478 103.522 386.289C114.331 368.1 134.225 355.877 155.004 346.973C175.782 338.07 198.073 331.847 218.298 322.054C233.567 314.662 249.235 300.528 242.744 285.373C238.135 274.611 224.6 269.414 212.685 265.04C195.854 258.857 179.091 251.659 165.333 240.782C151.576 229.905 141.013 214.819 139.963 198.82C138.982 183.882 146.391 169.634 157.331 158.939C168.276 148.245 182.53 140.705 197.137 134.265C254.836 108.844 379.353 108.108 419.513 108.581Z" fill="#F7F7F7"/>
<path d="M374.711 298.572C365.967 287.256 352.586 251.756 360.822 237.862C364.94 249.178 371.112 262.559 371.112 262.559C367.513 240.953 383.974 221.914 391.691 218.828C403.526 227.572 411.243 250.21 411.243 250.21C411.243 250.21 396.322 303.203 391.177 303.203C386.033 303.203 374.711 298.572 374.711 298.572Z" fill="#FCD2B1"/>
<path d="M524.208 573H34.7971C32.1579 573 30 570.221 30 566.822V543.178C30 539.779 32.1579 537 34.7971 537H524.203C526.842 537 529 539.779 529 543.178V566.822C529.005 570.221 526.847 573 524.208 573Z" fill="#F2F2F2"/>
<path d="M248.699 558.296H72.2145C57.3963 558.296 45.3843 546.284 45.3843 531.465V168.482C45.3843 153.663 57.3963 141.651 72.2145 141.651H248.699C263.517 141.651 275.529 153.663 275.529 168.482V531.46C275.529 546.284 263.517 558.296 248.699 558.296Z" fill="#2B94F4" fill-opacity="0.4"/>
<path d="M246.474 545.599H74.4447C65.41 545.599 58.0864 538.276 58.0864 529.241V171.505C58.0864 162.47 65.41 155.146 74.4447 155.146H246.474C255.509 155.146 262.832 162.47 262.832 171.505V529.235C262.832 538.27 255.509 545.599 246.474 545.599Z" fill="#F9F9F9"/>
<path d="M95 155L105.712 168.632C109.989 174.079 116.281 177.216 122.903 177.216H197.25C203.872 177.216 210.164 174.073 214.441 168.632L225.153 155H95Z" fill="#2B94F4" fill-opacity="0.4"/>
<path d="M233.715 262.359C237.799 248.681 231.804 233.339 221.281 223.694C210.758 214.049 196.453 209.434 182.268 207.832C171.105 206.571 159.59 207.039 148.986 210.729C138.378 214.419 128.733 221.555 123.365 231.416C117.473 242.248 117.165 255.104 116.287 267.401C115.409 279.698 113.469 292.777 105.279 301.988C98.7083 309.375 89.1203 313.128 80.4222 317.81C67.566 324.735 56.056 334.163 46.7418 345.405C39.2928 354.394 33.1385 364.803 31.0623 376.29C28.9805 387.778 31.4388 400.457 39.3441 409.053C46.6506 416.998 57.5047 420.58 68.0623 422.838C78.8365 425.143 90.2268 426.375 100.744 423.095C112.409 419.462 121.837 410.598 128.71 400.503C135.583 390.407 140.237 379.005 145.285 367.883C151.764 353.618 159.15 339.422 170.318 328.431C182.148 316.789 197.491 309.46 210.626 299.308C223.762 289.155 235.306 274.268 234.12 257.71" fill="#002677"/>
<path d="M249.925 287.25C246.839 258.954 244.78 254.322 220.083 240.947C200.651 230.424 90.2382 244.301 154.644 334.46C208.864 321.33 249.925 287.25 249.925 287.25Z" fill="#002677"/>
<path d="M155.449 327.36C159.222 325.376 159.439 318.366 155.934 311.702C152.43 305.039 146.53 301.245 142.758 303.229C138.986 305.213 138.769 312.223 142.273 318.887C145.778 325.55 151.677 329.344 155.449 327.36Z" fill="#FFE3CA"/>
<path d="M268.445 535.743C267.418 542.434 262.274 546.546 256.61 551.177C252.908 554.2 167.529 553.305 108.827 552.324C77.7188 551.805 54.1055 551.257 54.1055 551.257C54.1055 551.257 54.0941 551.229 54.077 551.177C53.4952 549.25 42.3216 511.371 51.8468 465.77C54.7671 451.779 62.5641 439.984 73.1559 430.19C98.0012 407.199 138.235 395.141 167.09 391.171C167.09 391.171 262.781 397.862 268.445 405.579C274.109 413.296 269.477 529.058 268.445 535.743Z" fill="#006EB3"/>
<path d="M124.392 552.21C116.698 551.982 57.2085 551.24 54.0828 551.189C53.5011 549.261 42.3275 511.383 51.8527 465.782C54.773 451.79 62.57 439.995 73.1617 430.202C126.451 437.993 132.497 549.244 124.392 552.21Z" fill="#2B94F4"/>
<path d="M209.28 354.132C206.708 366.48 202.077 388.086 209.28 399.921C203.622 416.382 192.3 425.131 192.3 425.131L153.715 401.98C153.715 401.98 180.465 359.276 170.695 342.302C173.78 334.072 209.28 354.132 209.28 354.132Z" fill="#FCD2B1"/>
<path d="M248.898 307.829C248.898 339.65 233.133 366.48 206.708 366.48C180.283 366.48 148.57 340.169 148.57 308.342C148.57 276.516 174.625 250.204 201.05 250.204C227.475 250.204 248.898 276.008 248.898 307.829Z" fill="#FFE3CA"/>
<path d="M253.587 304.122C251.682 284.187 241.678 265.142 226.34 252.269C218.84 245.978 209.623 240.993 199.835 241.181C188.747 241.398 178.937 248.1 170.176 254.899C162.1 261.167 149.654 263.756 144.977 272.848C140.3 281.934 135.492 316.327 141.891 324.296C157.639 319.345 178.703 286.856 181.464 270.584C181.452 270.584 225.93 307.304 253.587 304.122Z" fill="#002677"/>
<path d="M151.918 339.216C156.039 339.216 159.379 335.876 159.379 331.756C159.379 327.636 156.039 324.296 151.918 324.296C147.798 324.296 144.458 327.636 144.458 331.756C144.458 335.876 147.798 339.216 151.918 339.216Z" fill="#FFBE55"/>
<path d="M262.833 402.858C299.313 397.354 346.135 343.848 368.773 290.855C377.517 293.427 395.01 298.058 395.01 298.058C395.01 298.058 373.405 465.782 248.898 462.177C230.892 423.072 262.833 402.858 262.833 402.858Z" fill="#006EB3"/>
<path d="M116.355 199.059H77.5703C72.2374 199.059 67.874 194.696 67.874 189.363C67.874 184.03 72.2374 179.667 77.5703 179.667H116.355C121.688 179.667 126.052 184.03 126.052 189.363C126.052 194.696 121.688 199.059 116.355 199.059Z" fill="#FFBE55"/>
<path d="M76.9999 193.356C79.205 193.356 80.9925 191.568 80.9925 189.363C80.9925 187.158 79.205 185.37 76.9999 185.37C74.7949 185.37 73.0073 187.158 73.0073 189.363C73.0073 191.568 74.7949 193.356 76.9999 193.356Z" fill="white"/>
<path d="M89.2173 193.504V185.781H91.5558V191.473H94.4875V193.51H89.2173V193.504Z" fill="white"/>
<path d="M96.0049 193.504V185.781H98.3434V193.504H96.0049Z" fill="white"/>
<path d="M99.3301 185.775H101.982L103.653 190.977L105.319 185.775H107.971L105.119 193.498H102.176L99.3301 185.775Z" fill="white"/>
<path d="M108.969 193.504V185.781H114.827V187.817H111.302V188.587H114.747V190.623H111.302V191.473H114.827V193.51H108.969V193.504Z" fill="white"/>
<path d="M244.729 537.289H76.1846C70.8516 537.289 66.4883 532.926 66.4883 527.593C66.4883 522.26 70.8516 517.896 76.1846 517.896H244.729C250.062 517.896 254.425 522.26 254.425 527.593C254.425 532.926 250.062 537.289 244.729 537.289Z" stroke="white" stroke-miterlimit="10"/>
<path d="M229.004 529.874C230.107 529.874 231 528.98 231 527.878C231 526.775 230.107 525.881 229.004 525.881C227.902 525.881 227.008 526.775 227.008 527.878C227.008 528.98 227.902 529.874 229.004 529.874Z" fill="white"/>
<path d="M235.848 529.874C236.951 529.874 237.845 528.98 237.845 527.878C237.845 526.775 236.951 525.881 235.848 525.881C234.746 525.881 233.852 526.775 233.852 527.878C233.852 528.98 234.746 529.874 235.848 529.874Z" fill="white"/>
<path d="M242.693 529.874C243.796 529.874 244.689 528.98 244.689 527.878C244.689 526.775 243.796 525.881 242.693 525.881C241.591 525.881 240.697 526.775 240.697 527.878C240.697 528.98 241.591 529.874 242.693 529.874Z" fill="white"/>
<path d="M371.882 193.356C410.627 193.356 442.037 161.946 442.037 123.2C442.037 84.4542 410.627 53.0444 371.882 53.0444C333.136 53.0444 301.726 84.4542 301.726 123.2C301.726 161.946 333.136 193.356 371.882 193.356Z" fill="#2B94F4" fill-opacity="0.4"/>
<path d="M371.881 122.065C383.42 122.065 392.774 110.703 392.774 96.6892C392.774 82.6752 389.705 71.3134 371.881 71.3134C354.057 71.3134 350.989 82.6752 350.989 96.6892C350.989 110.703 360.343 122.065 371.881 122.065Z" fill="#F9F9F9"/>
<path d="M332.423 160.81C332.418 159.955 332.418 160.571 332.423 160.81V160.81Z" fill="#F9F9F9"/>
<path d="M411.34 161.478C411.351 161.244 411.34 159.852 411.34 161.478V161.478Z" fill="#F9F9F9"/>
<path d="M411.294 159.784C410.906 135.372 407.718 128.413 383.323 124.01C383.323 124.01 379.89 128.385 371.882 128.385C363.874 128.385 360.44 124.01 360.44 124.01C336.308 128.368 332.925 135.218 332.48 158.991C332.446 160.93 332.429 161.033 332.423 160.81C332.423 161.232 332.429 162.014 332.429 163.377C332.429 163.377 338.235 175.087 371.882 175.087C405.528 175.087 411.334 163.377 411.334 163.377C411.334 162.504 411.334 161.894 411.334 161.478C411.328 161.614 411.317 161.346 411.294 159.784Z" fill="#F9F9F9"/>
<path d="M474.156 256.311C492.467 256.311 507.311 241.467 507.311 223.156C507.311 204.844 492.467 190 474.156 190C455.844 190 441 204.844 441 223.156C441 241.467 455.844 256.311 474.156 256.311Z" fill="#2B94F4" fill-opacity="0.4"/>
<path d="M474.155 222.619C479.608 222.619 484.029 217.25 484.029 210.627C484.029 204.004 482.579 198.634 474.155 198.634C465.731 198.634 464.281 204.004 464.281 210.627C464.281 217.25 468.702 222.619 474.155 222.619Z" fill="#F9F9F9"/>
<path d="M455.507 240.93C455.505 240.526 455.505 240.817 455.507 240.93V240.93Z" fill="#F9F9F9"/>
<path d="M492.803 241.246C492.809 241.135 492.803 240.477 492.803 241.246V241.246Z" fill="#F9F9F9"/>
<path d="M492.782 240.445C492.598 228.908 491.092 225.619 479.563 223.538C479.563 223.538 477.94 225.606 474.155 225.606C470.371 225.606 468.748 223.538 468.748 223.538C457.343 225.598 455.745 228.835 455.534 240.07C455.518 240.987 455.51 241.035 455.507 240.93C455.507 241.13 455.51 241.499 455.51 242.143C455.51 242.143 458.254 247.677 474.155 247.677C490.057 247.677 492.801 242.143 492.801 242.143C492.801 241.731 492.801 241.442 492.801 241.246C492.798 241.31 492.793 241.184 492.782 240.445Z" fill="#F9F9F9"/>
<path d="M510.812 47.3407H426.163C416.068 47.3407 407.803 56.4724 407.803 67.6402C407.803 77.8384 414.699 86.337 423.585 87.7344L423.831 96.655L432.688 87.9397H510.806C520.902 87.9397 529.167 78.8081 529.167 67.6402C529.172 56.4724 520.908 47.3407 510.812 47.3407Z" fill="#FFBE55"/>
<path d="M446.691 74.6957C450.232 74.6957 453.102 71.8254 453.102 68.2847C453.102 64.7441 450.232 61.8738 446.691 61.8738C443.151 61.8738 440.28 64.7441 440.28 68.2847C440.28 71.8254 443.151 74.6957 446.691 74.6957Z" fill="#F9F9F9"/>
<path d="M468.485 74.6957C472.026 74.6957 474.896 71.8254 474.896 68.2847C474.896 64.7441 472.026 61.8738 468.485 61.8738C464.945 61.8738 462.074 64.7441 462.074 68.2847C462.074 71.8254 464.945 74.6957 468.485 74.6957Z" fill="#F9F9F9"/>
<path d="M490.285 74.6957C493.825 74.6957 496.696 71.8254 496.696 68.2847C496.696 64.7441 493.825 61.8738 490.285 61.8738C486.744 61.8738 483.874 64.7441 483.874 68.2847C483.874 71.8254 486.744 74.6957 490.285 74.6957Z" fill="#F9F9F9"/>
<path d="M472.245 548.82C481.993 548.82 486.105 541.035 487.725 532.776C489.556 523.461 488.21 513.543 488.21 513.543H456.269C456.269 513.543 456.218 513.919 456.149 514.598C455.562 520.461 453.64 548.82 472.245 548.82Z" fill="#2B94F4"/>
<path d="M456.275 513.543C456.275 514.239 463.427 514.803 472.245 514.803C481.063 514.803 488.216 514.239 488.216 513.543C488.216 512.847 481.063 512.282 472.245 512.282C463.422 512.282 456.275 512.847 456.275 513.543Z" fill="#2B94F4" fill-opacity="0.4"/>
<path d="M429 425.004C429 425.004 445.843 450.631 455.95 466.265C466.057 481.904 468.703 485.15 469.907 490.203C471.11 495.257 472.194 513.902 472.194 513.902H472.941C472.941 513.902 472.679 498.074 471.772 492.747C470.894 487.597 471.835 485.749 472.559 480.336C473.284 474.923 474.242 466.259 468.772 460.247C463.296 454.23 464.739 448.338 462.817 444.368C460.889 440.398 445.974 435.584 444.052 431.495C442.113 427.411 433.694 424.884 429 425.004Z" fill="#006EB3"/>
<path d="M429 425.004C429 425.004 434.293 431.021 437.903 433.063C441.514 435.111 443.197 433.303 445.963 438.236C448.729 443.17 448.837 445.332 451.37 447.859C453.902 450.385 456.908 450.505 457.154 456.038C457.393 461.57 455.95 466.264 455.95 466.264C455.95 466.264 430.084 426.327 429 425.004Z" fill="#2B94F4"/>
<path d="M470.854 513.908H470.101C470.101 513.908 469.873 508.786 467.842 506.299C466.53 504.696 460.958 502.871 455.442 500.687C452.408 499.483 449.391 498.171 447.115 496.728C440.71 492.656 434.601 479.543 434.076 477.21C433.888 476.394 433.808 475.904 433.814 475.562V475.55C433.825 474.923 434.139 474.826 434.675 474.193C434.932 473.885 435.713 473.993 436.666 474.284C439.426 475.128 441.759 477.016 443.202 479.52C444.537 481.836 446.676 484.722 449.288 485.423C453.811 486.633 453.435 487.38 455.106 491.983C456.771 496.58 460.975 497.333 466.245 502.757C471.532 508.176 470.854 513.908 470.854 513.908Z" fill="#006EB3"/>
<path d="M455.442 500.687C452.408 499.483 449.391 498.171 447.115 496.728C440.71 492.656 434.601 479.543 434.076 477.21C433.888 476.395 433.808 475.904 433.814 475.562C433.831 475.716 434.127 477.792 437.47 479.172C440.932 480.604 441.611 480.604 442.061 482.788C442.512 484.973 442.894 487.311 444.702 487.762C446.51 488.213 447.64 486.182 449.071 489.496C450.503 492.81 451.187 493.939 452.505 494.395C453.822 494.846 454.821 494.167 455.111 496.734C455.288 498.285 455.391 499.768 455.442 500.687Z" fill="#2B94F4"/>
<path d="M476.392 513.908H477.288C477.288 513.908 479.033 482.184 481.446 479.241C482.997 477.341 488.125 473.93 494.65 471.347C498.243 469.921 501.814 468.369 504.511 466.653C512.097 461.833 519.33 446.302 519.951 443.53C520.174 442.566 520.265 441.984 520.259 441.579V441.568C520.242 440.821 519.872 440.712 519.238 439.959C518.93 439.594 518.006 439.72 516.877 440.068C513.603 441.066 510.843 443.307 509.131 446.268C507.552 449.005 505.019 452.433 501.922 453.26C496.566 454.692 497.011 455.582 495.032 461.023C493.058 466.47 488.079 467.36 481.833 473.788C475.588 480.216 476.392 513.908 476.392 513.908Z" fill="#006EB3"/>
<path d="M494.649 471.341C498.243 469.915 501.813 468.364 504.511 466.647C512.097 461.827 519.329 446.296 519.951 443.524C520.173 442.56 520.265 441.978 520.259 441.573C520.236 441.756 519.883 444.214 515.93 445.845C511.829 447.539 511.025 447.539 510.489 450.129C509.952 452.718 509.502 455.485 507.363 456.021C505.218 456.557 503.884 454.144 502.19 458.074C500.49 461.998 499.686 463.339 498.123 463.875C496.566 464.411 495.38 463.607 495.032 466.641C494.826 468.506 494.706 470.263 494.649 471.341Z" fill="#2B94F4"/>
</svg>
