<svg width="1028" height="635" viewBox="0 0 1028 635" fill="none" xmlns="http://www.w3.org/2000/svg">
<path d="M521.95 644.428C499.334 647.858 488.232 648.682 464.656 646.212C463.011 637.431 454.924 591.469 454.924 591.469C454.924 591.469 445.604 636.196 444.507 646.898C424.358 653.895 388.447 646.349 388.447 646.349C388.447 646.349 386.117 603.68 385.157 588.039C381.731 529.866 407.91 506.68 407.91 506.68C407.91 506.68 428.745 503.387 456.706 503.661C484.668 503.936 503.035 506.131 503.035 506.131C503.035 506.131 526.199 538.51 524.965 568.968C523.869 599.427 524.965 622.751 521.95 644.428Z" fill="#2B94F4"/>
<path opacity="0.5" d="M419.562 591.469C419.562 591.469 438.477 601.21 455.473 589.686C455.473 589.686 474.388 602.445 493.852 589.686" stroke="#0E538C" stroke-miterlimit="10"/>
<path opacity="0.5" d="M457.94 535.354C457.94 535.354 460.956 565.813 456.158 585.981" stroke="#0E538C" stroke-miterlimit="10"/>
<path opacity="0.5" d="M474.388 534.806L476.855 564.715C476.855 564.715 493.303 575.142 501.801 572.673C510.299 570.203 520.716 554.974 520.716 554.974L511.533 527.534C511.533 527.534 503.583 531.238 493.303 533.022C484.805 534.394 474.388 534.806 474.388 534.806Z" fill="#0E538C"/>
<path opacity="0.5" d="M439.71 536.04L437.243 565.95C437.243 565.95 420.795 576.377 412.297 573.908C403.798 571.438 393.381 556.209 393.381 556.209L402.565 528.769C402.565 528.769 410.515 532.473 420.795 534.257C429.293 535.629 439.71 536.04 439.71 536.04Z" fill="#0E538C"/>
<path d="M397.356 508.326C407.91 511.207 418.602 513.814 429.567 514.912C443.548 516.421 457.392 515.872 471.372 514.774C482.201 513.814 493.44 513.265 503.857 510.11C505.091 509.698 506.187 509.286 507.421 508.875C506.187 502.152 505.091 495.566 504.543 490.216C503.994 485.276 506.736 461.815 508.517 446.86C510.299 431.906 510.299 386.492 503.172 381.69C496.044 376.888 479.871 375.242 475.621 374.556C458.625 371.675 433.816 371.812 424.359 373.321C415.449 374.693 402.291 380.593 398.727 388.825C394.067 399.526 394.615 419.832 397.493 434.512C400.509 449.193 401.331 477.73 401.194 484.453C400.92 488.706 399.275 498.036 397.356 508.326Z" fill="#D2D2D2"/>
<path d="M435.187 454.132C435.187 454.132 465.616 497.076 482.612 498.996" stroke="#B7B7B7" stroke-miterlimit="10"/>
<path d="M543.058 461.952C575.543 470.047 610.358 461.541 635.578 455.23C634.208 478.965 644.214 496.252 643.117 499.408C642.158 502.426 612.14 517.244 591.717 518.479C571.294 519.714 542.236 509.698 540.591 506.542C539.906 504.622 544.018 482.258 543.058 461.952Z" fill="#E9BEAE"/>
<path d="M562.796 332.847L564.715 358.504L601.723 352.33L590.483 317.481L562.796 332.847Z" fill="#F9CBBA"/>
<path d="M624.202 294.02C618.719 276.458 628.862 239.963 587.605 232.417C554.572 226.38 537.302 254.918 537.302 254.918C537.302 254.918 520.854 261.092 517.701 272.891C509.751 303.486 525.103 306.368 521.265 319.676C517.427 332.984 524.417 346.43 536.205 348.488C547.993 350.546 557.313 343.823 557.313 343.823C557.313 343.823 565.537 346.567 575.406 345.058C580.478 344.372 585.96 342.451 591.032 338.61C600.352 341.491 614.196 340.393 623.654 331.612C636.812 319.402 629.547 311.444 624.202 294.02Z" fill="#004A95"/>
<path d="M519.346 275.498C519.346 275.498 512.63 291.962 514.686 303.761C516.193 312.542 524.006 314.051 519.346 325.85C515.508 335.591 520.854 342.314 524.966 343.823" stroke="#0A4971" stroke-miterlimit="10"/>
<path d="M599.256 245.862C599.256 245.862 606.932 252.585 608.713 261.503C610.495 270.558 606.657 282.358 610.221 288.532C613.785 294.706 617.212 304.035 616.937 313.228C616.663 322.557 608.988 332.573 608.988 332.573" stroke="#0A4971" stroke-miterlimit="10"/>
<path d="M616.526 288.532C616.526 288.532 621.735 298.273 622.694 307.877C623.791 317.344 618.034 328.731 615.978 329.692" stroke="#0A4971" stroke-miterlimit="10"/>
<path d="M528.529 266.442C528.529 266.442 517.701 278.242 521.539 287.297C525.377 296.352 530.997 306.642 529.215 311.718C527.433 316.932 523.321 326.673 528.255 330.515" stroke="#0A4971" stroke-miterlimit="10"/>
<path d="M531.682 294.706C531.682 294.706 536.891 304.035 535.794 308.837C534.698 313.776 530.86 321.734 534.972 326.81C539.084 332.024 541.414 337.375 541.414 337.375" stroke="#0A4971" stroke-miterlimit="10"/>
<path d="M539.084 280.986C539.084 280.986 536.754 291.687 541.14 298.136C545.663 304.721 546.622 311.581 545.252 317.755C543.881 323.929 548.678 330.789 548.678 330.789" stroke="#0A4971" stroke-miterlimit="10"/>
<path d="M535.52 258.759C535.52 258.759 510.573 257.662 510.436 239.414C510.299 221.166 529.763 219.657 537.301 228.575C544.155 236.67 542.647 251.625 542.647 251.625L535.52 258.759Z" fill="#004A95"/>
<path d="M533.189 257.936C532.915 258.073 532.641 257.936 532.504 257.936C523.732 253.683 514.548 261.915 514.548 261.915C514.137 262.326 513.452 262.326 513.04 261.915C512.629 261.503 512.629 260.817 513.04 260.406C513.452 259.994 523.32 251.213 533.326 256.015C533.875 256.29 534.012 256.838 533.737 257.387C533.6 257.662 533.463 257.799 533.189 257.936Z" fill="#004A95"/>
<path d="M516.742 270.01C516.467 270.01 516.193 270.01 516.056 270.01C515.508 269.735 515.371 269.186 515.508 268.638C515.782 268.089 521.402 256.015 532.504 256.701C533.052 256.701 533.464 257.25 533.464 257.799C533.464 258.348 532.915 258.759 532.367 258.759C522.635 258.21 517.427 269.461 517.427 269.598C517.29 269.735 517.016 270.01 516.742 270.01Z" fill="#004A95"/>
<path d="M610.77 249.704C610.77 249.704 623.654 267.266 624.202 279.065C624.75 290.864 626.258 293.471 631.878 301.154C637.498 308.837 639.142 316.109 633.386 324.89" stroke="#0A4971" stroke-miterlimit="10"/>
<path d="M514.686 236.807C514.686 236.807 513.863 245.862 520.579 250.664C527.296 255.604 532.093 253.957 532.093 253.957" stroke="#0A4971" stroke-miterlimit="10"/>
<path d="M521.265 239.277C521.265 239.277 521.128 243.118 525.925 247.372C530.722 251.625 534.971 250.939 534.971 250.939" stroke="#0A4971" stroke-miterlimit="10"/>
<path d="M685.745 267.54C680.673 268.226 676.15 269.598 676.15 269.598C676.15 269.598 675.739 289.218 674.779 302.252C673.683 315.286 677.246 335.866 677.246 335.866C677.246 335.866 654.905 345.195 643.665 348.9C635.03 351.781 624.75 351.644 618.308 361.11C611.866 370.577 618.993 405.563 634.756 403.094C650.518 400.761 660.113 393.764 677.246 382.514C696.299 370.028 703.015 361.796 708.361 352.878C713.706 343.96 711.239 316.658 707.812 301.84C705.619 292.648 697.121 266.442 697.121 266.442C697.121 266.442 690.816 266.854 685.745 267.54Z" fill="#F9CBBA"/>
<path d="M678.343 274.263C683.826 276.184 694.791 271.382 697.395 269.324C700.136 267.128 700.959 262.738 701.918 259.582C702.878 256.427 701.918 246.411 701.781 241.884C701.644 237.219 699.04 225.282 696.984 218.285C694.928 210.739 688.76 211.7 689.719 217.05C690.542 221.852 691.09 231.045 691.09 231.045C691.09 231.045 687.526 226.106 684.374 226.106C681.221 226.106 679.439 228.438 679.439 228.438C679.439 228.438 678.343 225.282 674.779 225.968C671.215 226.654 671.352 230.908 671.352 230.908C671.352 230.908 664.499 211.974 660.661 208.544C656.823 205.114 653.26 207.858 655.453 213.072C657.646 218.285 659.017 222.538 660.798 228.164C663.403 236.533 664.362 244.902 664.362 244.902C664.362 244.902 657.646 238.454 654.904 237.905C652.163 237.356 646.681 237.356 646.406 240.649C645.995 243.942 655.59 249.978 656.823 251.488C659.154 254.094 661.21 257.113 665.733 264.933C667.789 268.089 672.86 272.342 678.343 274.263Z" fill="#F9CBBA"/>
<path d="M633.66 429.436C633.66 421.341 637.086 403.231 637.909 394.587C638.594 385.669 639.279 376.202 637.497 367.422C635.716 358.366 630.781 354.25 625.024 352.192C619.268 350.134 590.072 349.723 581.3 351.369C568.553 353.702 542.099 355.622 537.028 365.912C531.956 376.065 537.028 413.932 538.672 434.512C539.769 448.644 535.383 480.612 535.383 480.612C535.383 480.612 561.837 491.45 597.474 485.276C633.111 479.102 643.391 468.812 643.391 468.812C643.391 468.812 633.66 437.531 633.66 429.436Z" fill="#2B94F4"/>
<g opacity="0.5">
<path d="M619.542 398.429C619.542 398.429 605.698 410.777 599.53 425.183C593.362 439.589 586.098 459.208 586.098 459.208" fill="#2B94F4"/>
<path d="M619.542 398.429C619.542 398.429 605.698 410.777 599.53 425.183C593.362 439.589 586.098 459.208 586.098 459.208" stroke="#0E538C" stroke-miterlimit="10"/>
</g>
<path d="M595.692 653.072C557.313 654.17 529.763 641.959 529.763 641.959C529.763 641.959 529.626 590.783 530.585 565.676C531.27 548.388 538.809 512.716 538.809 512.716C538.809 512.716 538.809 508.189 539.083 506.542C539.494 504.21 539.906 501.878 539.906 501.878C539.906 501.878 557.45 504.484 593.499 500.78C629.547 497.213 640.924 487.746 640.924 487.746C640.924 487.746 642.431 488.981 644.213 491.313C645.995 493.646 647.092 496.664 647.092 496.664C647.092 496.664 656.412 503.25 662.58 518.616C668.885 533.845 669.982 558.816 669.982 574.594C669.982 590.372 668.885 639.489 668.885 639.489C668.885 639.489 637.086 651.974 595.692 653.072Z" fill="#FFBE55"/>
<path d="M538.672 512.579C538.672 512.579 573.35 517.656 599.256 513.54C625.298 509.424 646.407 496.115 646.407 496.115" stroke="#EAA542" stroke-miterlimit="10"/>
<path d="M594.047 642.233C594.047 642.233 605.972 609.442 617.623 598.466C629.411 587.49 633.797 556.758 633.797 556.758" stroke="#EAA542" stroke-miterlimit="10"/>
<path d="M395.026 341.216C387.899 330.515 369.532 311.856 369.532 311.856C369.532 311.856 369.943 291.138 368.984 274.4C368.024 257.524 366.242 239.277 362.953 229.81C367.476 227.752 371.588 222.538 373.507 219.932C376.111 216.502 377.893 210.19 378.715 204.702C379.538 199.214 374.877 197.568 375.289 195.236C375.563 192.903 383.101 175.067 385.02 169.854C386.939 164.64 381.457 161.484 378.03 164.228C374.74 166.972 366.242 187.827 366.242 187.827C366.242 187.827 367.887 167.796 367.065 163.131C366.242 158.466 362.816 156.957 359.663 159.564C356.51 162.17 356.099 188.238 356.099 188.238C356.099 188.238 353.084 185.357 349.109 187.552C344.997 189.748 345.134 192.354 345.134 192.354C345.134 192.354 343.215 190.571 339.651 195.647C336.088 200.724 338.829 221.99 343.215 226.38C344.037 227.203 344.86 227.752 345.682 228.301C344.312 230.084 342.941 232.417 341.981 235.298C338.966 243.667 334.854 258.348 331.976 273.988C328.823 290.727 329.645 313.365 331.427 324.066C333.209 334.768 355.277 369.754 368.435 383.474C381.045 396.645 399.824 402.408 408.733 392.392C421.343 377.712 402.154 351.918 395.026 341.216Z" fill="#F9CBBA"/>
<path d="M396.808 432.592C396.808 432.592 402.291 412.972 406.677 402.133C412.023 388.688 426.415 373.458 426.415 373.458C426.415 373.458 423.262 367.97 416.546 359.19C412.16 353.427 399.275 338.472 396.26 335.591C389.407 329.006 381.32 339.707 374.192 355.897C368.024 369.891 367.339 396.782 367.339 396.782C367.339 396.782 372.547 408.307 381.457 418.323C386.391 424.222 396.808 432.592 396.808 432.592Z" fill="#006EB3"/>
<path d="M324.437 659.932C303.603 660.481 279.616 658.423 279.616 658.423C279.616 658.423 257.274 659.383 239.319 658.423C221.363 657.462 205.326 651.288 205.326 651.288C205.326 651.288 205.326 626.181 204.367 615.479C203.407 604.778 199.021 591.332 199.021 571.575C199.021 551.818 203.544 532.748 206.834 523.555C210.123 514.363 351.028 512.03 355.688 527.534C356.511 530.278 359.8 547.565 361.034 563.48C361.993 576.789 361.034 589.411 361.034 589.411L368.161 646.761C368.161 646.761 346.642 659.246 324.437 659.932Z" fill="#F59700"/>
<path d="M295.379 563.343L298.531 603.131C298.531 603.131 319.777 616.988 330.742 613.696C341.707 610.403 353.769 593.664 353.769 593.664L349.246 555.386C349.246 555.386 333.072 558.541 319.777 560.874C308.811 562.932 295.379 563.343 295.379 563.343Z" fill="#F59700"/>
<path d="M295.379 563.343L298.531 603.131C298.531 603.131 319.777 616.988 330.742 613.696C341.707 610.403 353.769 593.664 353.769 593.664L349.246 555.386C349.246 555.386 333.072 558.541 319.777 560.874C308.811 562.932 295.379 563.343 295.379 563.343Z" fill="black" fill-opacity="0.2"/>
<path d="M208.479 564.304L212.316 604.229C212.316 604.229 228.627 621.379 239.867 620.007C251.106 618.635 264.265 603.954 264.265 603.954L262.757 565.264C262.757 565.264 246.446 565.676 232.876 565.95C221.911 566.087 208.479 564.304 208.479 564.304Z" fill="#F59700"/>
<path d="M208.479 564.304L212.316 604.229C212.316 604.229 228.627 621.379 239.867 620.007C251.106 618.635 264.265 603.954 264.265 603.954L262.757 565.264C262.757 565.264 246.446 565.676 232.876 565.95C221.911 566.087 208.479 564.304 208.479 564.304Z" fill="black" fill-opacity="0.2"/>
<path d="M272.352 563.343C272.352 563.343 271.392 593.802 279.479 617.126C285.099 633.59 283.043 649.368 284.002 657.462" stroke="#D38D2F" stroke-miterlimit="10"/>
<path d="M248.228 637.706C267.966 637.706 276.19 623.437 283.18 625.22C290.308 627.004 305.522 638.666 327.041 634.138" stroke="#D38D2F" stroke-miterlimit="10"/>
<path d="M252.066 310.346L256.452 277.83L300.176 280.3L307.166 315.423C307.166 315.423 299.765 339.982 273.311 334.219C246.994 328.731 250.695 310.484 252.066 310.346Z" fill="#B76B2F"/>
<path d="M324.848 243.53C323.478 239.277 313.472 238.179 313.472 238.179L307.304 265.894C307.304 265.894 315.117 264.933 318.817 260.954C322.381 257.113 326.493 248.881 324.848 243.53Z" fill="#B76B2F"/>
<path d="M239.181 239.688C239.181 239.688 228.627 234.749 226.023 241.335C223.693 247.234 225.749 253.82 229.998 258.348C233.288 261.778 243.293 264.659 243.293 264.659L239.181 239.688Z" fill="#B76B2F"/>
<path d="M324.711 209.642C323.066 209.093 318.954 207.721 318.954 207.721C318.954 207.721 327.315 200.312 328.275 197.156C329.371 194.001 326.904 189.199 314.568 188.376C305.385 187.827 294.967 188.787 294.967 188.787C294.967 188.787 303.054 181.927 301.958 177.262C300.861 172.735 295.653 174.518 285.921 177.811C273.037 182.202 261.249 183.848 261.249 183.848C261.249 183.848 241.649 187.278 237.399 195.373C233.15 203.468 235.892 210.739 235.892 210.739C235.892 210.739 229.038 218.285 230.135 227.34C231.231 236.396 231.78 244.49 235.755 254.78C239.73 264.933 243.842 271.519 247.542 275.086C251.106 278.653 255.355 291.276 255.355 291.276C255.355 291.276 265.498 292.236 278.657 292.236C291.815 292.236 300.724 286.199 300.724 286.199C300.724 286.199 304.836 274.537 306.618 271.382C308.4 268.226 314.157 254.918 315.802 249.43C317.446 243.804 318.68 232.828 320.325 230.359C321.97 228.026 324.437 225.968 326.356 224.322C328.275 222.676 331.564 219.794 331.427 216.364C331.427 212.111 327.863 210.739 324.711 209.642Z" fill="#1E0F00"/>
<path d="M246.309 209.504C246.309 209.504 240.141 194.687 256.452 193.315C277.971 191.531 291.678 187.964 291.678 187.964" fill="#1E0F00"/>
<path d="M251.106 211.288C251.106 211.288 252.888 201.684 269.062 204.702C285.236 207.721 311.964 207.721 311.964 207.721" fill="#1E0F00"/>
<path d="M257.686 213.072C257.686 213.072 266.047 216.09 282.083 219.657C298.257 223.224 308.4 219.108 308.4 219.108" fill="#1E0F00"/>
<path d="M245.761 217.188C245.761 217.188 235.618 224.322 239.181 239.551C242.745 254.78 249.873 264.384 249.873 264.384" fill="#1E0F00"/>
<path d="M250.558 220.892C250.558 220.892 243.43 233.377 251.106 246L250.558 220.892Z" fill="#1E0F00"/>
<path d="M305.385 306.23C305.385 306.23 357.333 311.856 364.461 330.789C371.588 349.586 365.42 386.63 361.719 398.566C358.019 410.502 355.825 453.583 356.237 474.3C356.648 490.353 363.227 541.391 362.405 552.779C361.719 564.166 359.937 576.789 339.24 578.572C318.68 580.356 290.856 572.261 282.906 567.871C274.819 563.343 257.823 560.05 246.172 557.992C238.633 556.758 232.328 558.404 217.936 557.581C203.681 556.62 197.788 553.876 196.417 552.23C194.361 549.623 195.046 465.931 194.635 450.702C194.224 435.473 182.573 373.596 185.04 350.683C186.411 338.061 189.564 322.557 197.651 316.109C208.89 307.328 251.929 305.956 251.929 305.956C251.929 305.956 260.564 310.209 275.23 310.209C290.445 310.209 305.385 306.23 305.385 306.23Z" fill="#FFBE55"/>
<path d="M479.185 420.93C473.84 442.47 435.187 454.132 424.084 456.053C412.982 457.974 397.768 444.802 386.528 434.924C375.289 425.046 357.333 406.935 357.333 406.935L385.432 353.976C385.432 353.976 397.219 364.952 408.048 376.614C419.013 388.276 434.502 405.152 434.502 405.152C434.502 405.152 484.531 399.389 479.185 420.93Z" fill="#B76B2F"/>
<path d="M370.217 425.732C365.146 428.338 353.906 412.835 344.174 411.326C334.443 409.816 317.583 402.819 317.583 402.819C317.583 402.819 325.533 311.856 342.118 315.423C364.186 320.225 397.768 357.406 401.605 365.501C404.347 371.263 396.397 380.593 390.64 393.215C384.746 405.838 375.289 423.125 370.217 425.732Z" fill="#FFBE55"/>
<path d="M239.182 316.109C231.506 305.682 213.824 301.977 204.367 290.178C191.482 273.851 177.913 254.918 177.913 254.918C177.913 254.918 179.283 232.691 177.502 215.267C175.72 197.842 172.978 161.484 172.978 161.484L147.484 150.234C147.484 150.234 131.31 191.394 128.295 212.934C125.142 234.475 118.426 248.332 126.924 273.851C135.422 299.37 170.511 367.97 187.919 370.166C205.463 372.361 246.857 326.673 239.182 316.109Z" fill="#B76B2F"/>
<path d="M209.301 125.538C209.575 123.343 206.834 118.952 200.803 120.462C196.143 121.696 189.289 131.849 188.33 129.928C187.096 127.459 198.062 103.174 200.529 92.4728C201.763 87.122 196.28 83.5548 192.031 89.866C188.33 95.2168 181.065 114.013 180.106 114.425C179.147 114.836 187.096 86.5732 186.822 80.8108C186.548 75.0484 180.517 73.402 178.187 77.3808C175.857 81.3596 170.511 111.406 168.592 110.72C166.673 110.034 170.374 84.378 169.141 79.1644C167.907 73.8136 162.561 72.8532 160.231 78.7528C158.038 84.6524 156.805 112.641 155.023 112.504C153.241 112.367 153.652 96.8632 151.733 89.5916C149.54 81.2224 143.92 85.4756 143.098 90.0032C142.413 94.5308 143.646 110.034 143.235 120.736C142.824 131.438 142.687 137.2 143.646 144.334C144.332 149.822 147.621 155.448 150.637 157.643C153.789 159.838 169.141 165.6 174.349 162.994C179.558 160.387 187.371 155.859 189.701 150.783C192.031 145.706 199.432 138.435 202.311 135.005C205.875 130.889 209.164 126.773 209.301 125.538Z" fill="#B76B2F"/>
<path d="M231.095 304.447C225.475 301.154 220.267 294.157 215.469 290.864C209.712 286.885 205.463 284.69 205.463 284.69C205.463 284.69 200.94 277.967 199.158 276.184C197.376 274.4 192.853 271.244 190.249 272.616C187.508 273.988 173.664 297.312 166.536 317.892C160.78 334.631 155.845 371.675 158.449 377.986C159.82 381.142 172.704 384.297 178.187 388.688C183.533 393.215 185.315 400.35 193.401 402.956C201.488 405.7 250.695 343.823 250.695 343.823C250.695 343.823 237.4 308.014 231.095 304.447Z" fill="#FFBE55"/>
<path d="M205.189 285.65C205.189 285.65 177.502 321.46 175.72 361.796" stroke="#EAA542" stroke-miterlimit="10"/>
<path d="M223.967 301.84C223.967 301.84 194.087 314.051 188.33 339.844" stroke="#EAA542" stroke-miterlimit="10"/>
<path d="M235.344 414.893C235.344 414.893 257 497.213 300.999 514.088" stroke="#EAA542" stroke-miterlimit="10"/>
<path d="M189.975 400.35C189.975 400.35 224.927 377.986 239.182 325.027" stroke="#EAA542" stroke-miterlimit="10"/>
<path d="M335.951 345.744C335.951 345.744 341.296 394.999 355.688 408.033" stroke="#EAA542" stroke-miterlimit="10"/>
<path d="M231.095 537.412C231.095 537.412 236.852 539.47 245.487 543.586C254.122 547.702 265.087 556.209 281.124 564.304" stroke="#EAA542" stroke-miterlimit="10"/>
<path d="M581.985 521.223C582.533 511.482 588.564 508.326 593.635 506.405C598.707 504.622 609.261 502.152 611.591 501.603C615.429 500.506 628.999 492.274 630.781 498.996C632.699 505.719 617.622 509.972 618.993 511.482C620.501 512.991 639.005 509.835 647.777 510.658C652.163 511.07 653.534 513.128 653.671 515.323C653.808 521.772 624.613 520.262 625.298 522.046C625.572 522.869 631.603 524.516 637.908 524.516C644.076 524.516 650.792 522.869 652.848 523.555C656.96 525.202 657.371 530.415 652.574 531.65C650.518 532.199 644.624 533.845 638.73 533.845C630.643 533.845 622.831 532.61 622.831 532.61C622.831 532.61 629.41 535.08 635.441 536.589C640.649 537.824 646.132 536.864 647.366 537.687C651.478 540.156 648.873 544.821 645.447 545.782C643.939 546.193 638.593 547.291 633.385 545.919C626.531 544.135 618.856 540.98 618.445 541.666C617.896 543.038 629.547 547.154 632.151 549.349C634.755 551.544 632.699 555.248 629.136 555.386C624.887 555.523 619.541 554.288 612.139 551.132C604.738 548.114 598.707 545.782 593.773 542.763C584.589 537.275 581.437 530.827 581.985 521.223Z" fill="#F9CBBA"/>
<path d="M574.172 490.902C567.182 484.865 547.17 471.556 544.018 469.498C543.606 467.989 541.824 461.266 541.824 461.266C541.824 461.266 534.56 466.206 526.473 468.401C518.386 470.596 506.324 473.34 506.324 473.34C506.324 473.34 512.766 494.606 519.071 500.094C525.925 505.994 542.236 517.381 552.242 521.634C567.867 528.22 584.452 530.004 584.452 530.004L592.676 507.64C592.676 507.64 584.589 499.957 574.172 490.902Z" fill="#F9CBBA"/>
<path d="M536.342 416.814C531.819 404.74 524.417 392.255 517.838 387.041C511.259 381.828 501.116 380.73 501.116 380.73C501.116 380.73 505.913 417.362 505.913 428.887C505.913 440.412 503.583 474.575 503.583 474.575C503.583 474.575 514.959 472.38 527.433 469.773C539.906 467.166 544.703 459.62 544.703 459.62C544.703 459.62 543.195 434.787 536.342 416.814Z" fill="#006EB3"/>
<path d="M540.728 361.522C533.738 360.973 518.249 376.614 511.396 396.645C505.228 414.481 496.044 427.378 496.044 427.378C496.044 427.378 473.291 442.744 465.89 449.33C455.472 458.522 447.66 466.343 447.66 466.343L456.158 488.569C456.158 488.569 471.92 483.081 487.546 476.358C497.552 471.968 515.096 461.404 520.579 456.876C526.062 452.348 536.753 435.747 540.043 429.162C543.332 422.576 551.556 415.853 554.298 397.194C557.176 378.809 547.855 362.071 540.728 361.522Z" fill="#F9CBBA"/>
<path d="M457.803 477.593C457.117 467.715 450.949 464.422 445.878 462.638C440.807 460.855 429.978 458.522 427.785 457.974C423.947 457.013 410.104 448.644 408.322 455.504C406.54 462.501 421.754 466.48 420.384 468.126C419.013 469.636 406.677 468.401 402.291 466.068C397.768 463.873 396.534 467.852 396.945 471.008C397.356 474.163 400.509 476.77 403.661 478.142C406.814 479.514 414.764 477.868 414.353 478.828C414.079 479.788 412.16 480.337 407.225 480.749C402.291 481.16 400.509 478.005 398.042 479.514C395.575 481.16 395.163 488.02 400.098 489.255C402.154 489.804 404.621 490.216 407.773 490.216C410.926 490.216 417.231 489.667 417.231 489.667C417.231 489.667 412.16 491.725 407.911 492.822C403.661 493.92 398.042 490.216 397.082 493.783C396.123 497.35 398.042 501.466 401.057 502.289C404.21 503.25 408.733 502.701 411.337 502.289C414.079 501.878 421.206 498.036 421.617 498.859C422.303 500.231 410.515 504.484 407.911 506.817C405.306 509.149 407.362 512.716 410.926 512.854C415.175 512.991 420.521 511.619 428.059 508.326C435.461 505.17 442.863 499.682 447.797 496.527C456.706 491.039 458.351 487.472 457.803 477.593Z" fill="#F9CBBA"/>
<path d="M832.406 560.736C832.406 540.705 823.771 516.97 823.771 516.97C823.771 516.97 685.608 506.817 681.633 521.772C680.262 526.985 678.069 549.623 676.973 572.536C675.876 595.448 681.359 645.389 681.359 645.389C681.359 645.389 699.452 648.27 720.423 649.916C741.394 651.563 756.883 643.88 763.051 644.428C766.888 644.84 779.361 646.761 795.261 646.349C804.719 646.075 830.899 640.861 830.899 640.861C830.899 640.861 830.35 625.083 830.076 606.287C829.391 585.981 832.406 580.768 832.406 560.736Z" fill="#006EB3"/>
<path opacity="0.2" d="M735.363 563.618C723.164 562.52 708.361 561.011 708.361 561.011L703.563 595.86C703.563 595.86 717.27 613.147 727.276 615.205C737.282 617.263 754.004 599.976 754.004 599.976L757.568 563.892C757.705 563.892 745.369 564.441 735.363 563.618Z" fill="#1E0F00"/>
<path opacity="0.2" d="M828.157 554.7L825.142 590.783C825.142 590.783 812.943 609.168 805.13 609.717C798.962 610.128 783.61 597.094 783.61 597.094L786.9 565.401C786.9 565.401 799.236 562.383 807.46 560.599C815.684 558.953 828.157 554.7 828.157 554.7Z" fill="#1E0F00"/>
<path opacity="0.2" d="M775.661 581.591C775.661 581.591 773.879 603.131 769.081 610.814C764.284 618.635 762.776 642.645 762.776 642.645" stroke="#1E0F00" stroke-miterlimit="10"/>
<path opacity="0.2" d="M733.855 629.336C733.855 629.336 746.328 629.885 751.811 628.102C757.157 626.318 763.736 621.516 766.751 621.516C769.767 621.516 781.006 630.434 798.962 628.102" stroke="#1E0F00" stroke-miterlimit="10"/>
<path d="M904.915 235.024C903.544 213.072 892.853 188.787 892.853 188.787C892.853 188.787 893.812 180.144 893.675 174.93C893.538 166.149 886.411 150.646 884.217 147.353C882.161 144.06 875.719 138.709 873.252 139.121C870.785 139.532 870.511 141.179 870.511 141.179C870.511 141.179 865.302 137.474 862.013 139.121C858.997 140.493 857.764 144.334 857.764 144.334C857.764 144.334 854.337 142.002 851.733 143.374C848.306 145.295 847.895 150.371 847.895 150.371C847.895 150.371 845.016 149.96 842.96 151.194C840.904 152.429 838.848 156.408 839.26 158.466C839.671 160.524 840.767 162.994 840.767 162.994C840.767 162.994 839.534 168.207 840.493 171.226C841.453 174.244 840.493 177.4 841.453 179.732C844.468 187.964 851.458 189.748 854.748 194.001C858.038 198.254 868.044 199.763 868.044 199.763C868.044 199.763 867.358 220.48 866.262 230.084C864.48 244.628 862.287 266.58 862.287 266.58C862.287 266.58 853.377 276.458 848.443 283.318C843.509 290.178 838.3 298.822 831.31 304.447C817.877 315.423 797.728 316.383 803.759 343.96C806.912 358.229 821.167 373.047 835.559 372.772C849.951 372.498 871.881 343.686 878.598 333.945C885.314 324.204 896.828 298.136 899.843 289.08C902.996 280.025 906.011 254.232 904.915 235.024Z" fill="#CC6947"/>
<path d="M848.717 150.371C848.717 150.371 856.256 151.88 858.175 158.878" stroke="#B26F1F" stroke-miterlimit="10"/>
<path d="M857.9 143.648C857.9 143.648 866.947 147.902 867.358 153.39" stroke="#B26F1F" stroke-miterlimit="10"/>
<path d="M871.196 140.904C871.196 140.904 878.735 145.706 879.694 151.469" stroke="#B26F1F" stroke-miterlimit="10"/>
<path d="M855.981 173.695C855.981 173.695 853.925 171.637 850.225 169.168" stroke="#B26F1F" stroke-miterlimit="10"/>
<path d="M851.733 173.695C851.458 171.226 850.773 169.716 849.951 167.933C848.991 166.149 848.032 163.68 846.935 162.445C845.702 161.21 844.194 161.21 842.96 161.896C841.727 162.445 840.904 164.366 840.904 164.366" stroke="#B26F1F" stroke-miterlimit="10"/>
<path d="M773.331 327.634C776.072 320.362 791.423 318.03 799.236 316.52C807.049 314.874 811.024 311.444 816.095 309.386C819.659 307.877 826.101 298.547 834.325 299.508C842.549 300.468 854.337 313.228 856.119 330.515C857.901 347.802 858.86 361.522 856.119 371.538C853.378 381.553 847.895 389.785 835.148 389.785C821.715 389.785 797.18 400.35 797.18 400.35C797.18 400.35 770.589 334.905 773.331 327.634Z" fill="#FFA10A"/>
<path d="M776.209 292.922C776.209 292.922 784.57 291.687 786.626 289.08C790.601 284.004 792.245 273.577 789.23 267.814C785.94 261.366 775.798 267.266 775.798 267.266C775.798 267.266 722.067 231.868 714.529 235.161C706.853 238.591 706.305 249.018 706.442 253.683C706.579 258.21 708.635 265.07 708.635 265.07C708.635 265.07 704.386 263.973 702.741 266.717C701.096 269.461 702.33 275.086 703.015 277.693C704.112 281.672 705.482 288.806 708.087 290.315C710.691 291.824 712.473 290.864 712.473 290.864C712.473 290.864 715.625 305.819 717.681 310.758C719.6 315.697 725.494 314.6 725.494 314.6L726.179 338.747L776.62 337.238C776.757 334.768 769.355 305.133 769.355 305.133L776.209 292.922Z" fill="#CC6947"/>
<path d="M782.514 229.398C782.514 229.398 784.57 221.852 779.636 214.032C774.564 206.349 754.415 204.565 754.415 204.565L732.622 201.547C732.622 201.547 727.687 197.705 721.245 198.94C714.803 200.312 717.133 207.446 717.133 207.446C717.133 207.446 710.691 207.035 708.772 210.465C707.538 212.66 707.813 217.188 709.046 221.029C706.305 222.264 704.112 225.42 703.975 228.987C703.838 232.828 705.071 237.768 707.675 240.512C707.675 240.512 705.482 250.802 705.894 255.604C706.853 265.756 714.666 278.653 718.23 286.611C721.656 294.568 723.438 294.706 727.687 298.684C731.936 302.663 733.444 305.27 734.952 312.13C736.46 318.99 750.029 316.246 758.664 315.011C767.3 313.776 770.452 312.816 771.274 311.032C772.097 309.249 773.33 299.508 776.62 295.529C779.91 291.55 783.473 284.553 786.626 273.851C789.779 263.15 789.504 254.918 789.778 245.588C790.19 236.396 782.514 229.398 782.514 229.398Z" fill="#1E0F00"/>
<path d="M769.081 244.079C769.081 244.079 771.412 253.683 768.533 266.168C765.518 278.653 763.736 293.059 763.736 293.059" fill="#1E0F00"/>
<path d="M775.66 236.944C775.66 236.944 785.255 245.314 781.006 260.817C776.894 276.321 771.411 288.943 771.411 288.943" fill="#1E0F00"/>
<path d="M722.616 236.396C722.616 236.396 732.759 239.414 743.45 236.396C754.141 233.377 763.187 235.161 763.187 235.161" fill="#1E0F00"/>
<path d="M719.6 214.306C719.6 214.306 739.338 221.441 750.029 220.343C760.72 219.108 768.533 232.28 768.533 232.28" fill="#1E0F00"/>
<path d="M727.961 203.468C727.961 203.468 735.774 207.584 747.699 208.818C759.623 210.053 772.234 211.837 775.112 219.52C778.127 227.34 775.66 230.908 775.66 230.908" fill="#1E0F00"/>
<path d="M515.782 382.239C517.564 384.023 521.95 380.318 527.158 380.867C531.408 381.279 536.342 389.922 541.825 392.255C547.307 394.587 554.435 396.782 554.435 396.782C554.435 396.782 569.923 426.006 577.051 435.061C587.057 447.546 601.586 458.66 610.632 459.208C619.678 459.62 642.157 450.016 657.235 439.589C672.449 429.299 689.308 411.6 689.308 411.6L672.312 367.833C672.312 367.833 657.783 377.574 646.269 386.63C635.167 395.41 618.993 413.384 618.993 413.384C618.993 413.384 605.424 402.408 597.748 396.096C590.072 389.648 575.269 383.062 575.269 383.062C575.269 383.062 573.213 371.538 572.802 368.245C572.528 364.952 570.334 359.464 567.593 355.485C564.852 351.506 559.095 350.272 555.805 352.741C553.886 354.113 557.45 355.897 558.684 358.504C559.506 360.287 559.643 362.208 559.643 362.208C559.643 362.208 554.024 354.662 548.952 353.29C545.662 352.33 541.825 351.232 539.083 353.564C537.576 354.799 537.438 356.994 537.438 356.994C537.438 356.994 531.956 357.818 530.722 359.876C529.626 361.934 529.626 363.58 529.626 363.58C529.626 363.58 525.788 363.717 524.28 365.775C522.772 367.833 521.813 372.224 521.813 372.224C521.813 372.224 518.112 373.047 516.33 375.105C513.726 378.123 514 380.593 515.782 382.239Z" fill="#CC6947"/>
<path d="M523.046 371.949C523.046 371.949 531.544 368.245 538.946 376.477" stroke="#B26F1F" stroke-miterlimit="10"/>
<path d="M530.311 363.306C530.311 363.306 537.712 362.482 541.139 366.736" stroke="#B26F1F" stroke-miterlimit="10"/>
<path d="M538.124 356.72C538.124 356.72 543.606 356.171 547.17 360.424" stroke="#B26F1F" stroke-miterlimit="10"/>
<path d="M719.189 329.417C719.189 329.417 681.907 333.122 671.078 349.448C660.25 365.775 670.804 403.78 674.505 415.442C678.206 427.104 677.932 470.184 677.658 490.49C677.521 505.994 668.474 546.056 672.175 552.504C675.876 559.09 728.921 571.85 745.094 572.536C782.788 573.908 828.294 560.05 834.188 552.367C840.082 544.684 823.497 482.67 823.771 467.989C824.045 453.172 824.045 380.318 821.303 358.092C818.699 335.866 811.435 319.539 775.797 325.85C756.197 329.28 719.189 329.417 719.189 329.417Z" fill="#FFA10A"/>
<path d="M684.922 341.902C684.922 341.902 676.287 343.823 671.49 347.665C663.814 353.702 656.001 363.306 651.478 370.028C643.117 382.376 631.604 389.648 631.604 389.648C631.604 389.648 633.797 404.877 642.021 420.381C650.108 436.022 661.758 443.705 661.758 443.705C661.758 443.705 683.826 435.747 692.324 421.616C701.507 406.249 704.797 387.178 704.797 387.178L684.922 341.902Z" fill="#FFA10A"/>
<path d="M791.834 329.554C791.834 329.554 809.105 339.707 814.45 355.897C819.796 372.086 820.481 388.688 820.481 388.688" stroke="#D6903C" stroke-miterlimit="10"/>
<path d="M810.887 315.834C810.887 315.834 829.939 311.032 838.985 326.536" stroke="#D6903C" stroke-miterlimit="10"/>
<path d="M806.638 317.069C806.638 317.069 824.593 316.52 833.503 337.375" stroke="#D6903C" stroke-miterlimit="10"/>
<path d="M711.788 369.617C711.788 369.617 713.57 389.374 707.676 401.859C701.645 414.344 679.577 434.101 679.577 434.101" stroke="#D6903C" stroke-miterlimit="10"/>
<path d="M783.473 407.21C783.473 407.21 766.751 435.336 761.954 460.306C757.157 485.414 744.684 530.141 744.684 530.141" stroke="#D6903C" stroke-miterlimit="10"/>
<path d="M522.087 375.654C518.524 368.519 509.614 361.385 508.243 356.857C506.873 352.33 510.025 343.823 508.243 332.71C506.462 321.46 501.116 313.914 500.157 310.346C499.197 306.779 497.415 291.138 494.811 284.827C492.07 278.516 488.506 271.382 484.942 266.442C481.378 261.503 475.485 256.976 462.6 253.408C449.579 249.841 437.106 258.759 437.106 258.759C437.106 258.759 425.044 256.015 416.957 264.11C408.87 272.205 405.444 279.888 404.484 286.611C403.525 293.196 403.113 298.684 401.331 303.624C399.55 308.563 397.905 315.148 393.793 322.283C386.391 335.18 392.559 351.232 393.656 359.19C394.889 367.01 385.158 374.007 380.634 381.142C376.111 388.276 378.304 402.133 384.883 407.758C391.463 413.384 399.413 409.816 402.154 414.207C404.895 418.734 410.652 435.198 426.278 437.942C441.903 440.686 448.208 429.436 454.513 430.259C460.818 431.22 466.164 440.961 481.378 435.198C496.593 429.436 494.263 415.167 498.786 411.463C503.309 407.758 510.574 409.268 518.112 404.466C525.651 399.938 525.651 382.925 522.087 375.654Z" fill="#004A95"/>
<path d="M481.458 274.485C481.458 274.485 491.601 292.458 490.368 305.492C489.134 318.664 492.698 327.582 495.713 336.5C498.729 345.418 493.932 359.138 499.825 365.723C505.856 372.309 510.517 388.361 507.638 394.947" stroke="#0A4971" stroke-miterlimit="10"/>
<path d="M501.744 335.402C501.744 335.402 504.074 345.555 502.978 353.375C501.744 361.196 507.775 363.528 511.887 370.662C515.999 377.797 517.233 388.636 515.451 391.517" stroke="#0A4971" stroke-miterlimit="10"/>
<path d="M403.879 320.447C403.879 320.447 397.299 331.149 400.863 340.204C404.427 349.122 406.894 366.546 401.411 371.897C396.066 377.248 382.907 386.166 388.253 395.77" stroke="#0A4971" stroke-miterlimit="10"/>
<path d="M409.91 370.662C409.91 370.662 401.549 384.382 406.346 392.752C411.143 401.121 412.925 403.453 412.925 411.822C412.925 420.192 418.956 425.542 418.956 425.542" stroke="#0A4971" stroke-miterlimit="10"/>
<path d="M436.089 262C436.089 262 418.819 284.638 427.18 302.062C435.541 319.35 432.526 328.405 430.195 339.106C427.865 349.808 425.398 360.647 429.647 371.348C433.759 382.05 434.445 388.636 431.977 400.572C429.647 412.508 433.759 420.329 438.556 424.994" stroke="#0A4971" stroke-miterlimit="10"/>
<path d="M433.211 281.62C433.211 281.62 429.647 294.105 437.323 310.843C445.136 327.582 443.902 342.536 441.435 349.671C439.105 356.805 440.201 363.391 445.547 371.76C450.893 380.129 451.578 389.047 447.877 399.2C444.313 409.353 446.643 414.704 451.441 418.957" stroke="#0A4971" stroke-miterlimit="10"/>
<path d="M480.282 264.11C480.282 264.11 499.334 279.614 502.898 294.02C506.461 308.288 496.867 313.776 502.349 324.478C507.695 335.18 513.726 341.216 512.492 353.153C511.259 365.089 514.274 366.324 519.62 375.791C524.965 385.395 529.763 388.276 526.747 400.212" stroke="#0A4971" stroke-miterlimit="10"/>
<path d="M419.424 270.147C419.424 270.147 398.59 280.848 398.59 296.489C398.59 311.993 403.388 313.776 400.372 327.496C397.357 341.216 388.996 345.47 386.665 355.622C384.335 365.775 389.681 381.279 386.117 386.63C382.553 391.98 374.192 406.386 385.569 415.304" stroke="#0A4971" stroke-miterlimit="10"/>
</svg>
