<svg width="563" height="673" viewBox="0 0 563 673" fill="none" xmlns="http://www.w3.org/2000/svg">
<g filter="url(#filter0_d)">
<path d="M118.963 98.1015C81.9954 111.823 63.5117 118.684 54.788 134.882C46.0643 151.079 50.5075 170.288 59.394 208.706L93.3988 355.715C102.285 394.132 106.728 413.341 120.973 421.013C135.218 428.685 153.702 421.824 190.67 408.102L276.426 376.271C280.823 374.639 283.021 373.823 284.866 372.306C286.711 370.79 288.053 368.695 290.738 364.505L378.303 227.863C381.712 222.543 383.417 219.883 383.968 216.918C384.519 213.953 383.848 211.052 382.506 205.251L357.694 97.9819C348.807 59.5642 344.364 40.3554 330.119 32.6833C315.874 25.0113 297.39 31.8722 260.423 45.5939L118.963 98.1015Z" fill="#F59700"/>
<path fill-rule="evenodd" clip-rule="evenodd" d="M293.65 360.226L378.346 228.061C379.141 226.82 379.843 225.724 380.46 224.735C371.911 233.771 360.479 234.722 348.054 235.756C329.744 237.28 309.275 238.983 292.688 266.995C278.284 291.321 283.717 310.5 288.627 327.831C292.44 341.292 295.938 353.639 289.578 366.417L293.65 360.226ZM289.198 367.158C289.329 366.911 289.455 366.664 289.578 366.417L287.123 370.15C287.751 369.333 288.414 368.359 289.198 367.158Z" fill="white"/>
<g clip-path="url(#clip0)">
<mask id="mask0" mask-type="alpha" maskUnits="userSpaceOnUse" x="169" y="182" width="81" height="80">
<path fill-rule="evenodd" clip-rule="evenodd" d="M234.022 182.205L169.634 197.245L184.674 261.636L249.063 246.596L234.022 182.205Z" fill="white"/>
</mask>
<g mask="url(#mask0)">
<path fill-rule="evenodd" clip-rule="evenodd" d="M231.786 241.726C230.049 242.132 228.564 243.174 226.993 244.277C217.514 251.672 204.425 252.373 194.325 246.101C180.998 237.815 176.891 220.233 185.171 206.907C189.18 200.454 195.463 195.95 202.869 194.221C210.278 192.49 217.91 193.747 224.359 197.756C234.462 204.028 239.626 216.074 237.216 227.736C236.92 229.634 236.638 231.482 237.048 233.237C237.457 234.99 238.471 236.614 239.366 238.048C240.102 239.228 241.217 241.008 240.89 241.533C240.575 242.062 238.469 241.837 237.081 241.696C235.415 241.53 233.524 241.333 231.786 241.726V241.726ZM216.935 254.101C221.512 253.032 225.894 250.988 229.739 247.986C230.89 247.18 231.967 246.423 232.821 246.223C233.805 246 235.233 246.147 236.612 246.289C239.44 246.576 242.961 246.935 244.811 243.969C246.652 241.002 244.785 238.011 243.281 235.604C242.54 234.419 241.777 233.194 241.541 232.188C241.348 231.361 241.5 230.213 241.757 228.552C244.537 215.123 238.532 201.125 226.792 193.836C219.297 189.177 210.429 187.716 201.822 189.726C193.215 191.737 185.908 196.972 181.253 204.47C171.628 219.962 176.4 240.393 191.892 250.018C199.487 254.739 208.537 256.063 216.935 254.101V254.101Z" fill="#F9F9F9"/>
</g>
<path fill-rule="evenodd" clip-rule="evenodd" d="M198.506 228.926C200.16 228.54 201.201 226.884 200.814 225.227C200.427 223.571 198.787 222.542 197.133 222.928L197.106 222.934C195.453 223.32 194.423 224.973 194.81 226.63C195.197 228.286 196.852 229.312 198.506 228.926" fill="#F9F9F9"/>
<path fill-rule="evenodd" clip-rule="evenodd" d="M210.516 226.121C212.169 225.734 213.211 224.079 212.824 222.422C212.437 220.766 210.8 219.736 209.143 220.123L209.116 220.129C207.463 220.515 206.433 222.168 206.82 223.825C207.207 225.481 208.862 226.507 210.516 226.121" fill="#F9F9F9"/>
<path fill-rule="evenodd" clip-rule="evenodd" d="M222.526 223.315C224.18 222.929 225.221 221.274 224.835 219.617C224.448 217.96 222.808 216.931 221.154 217.317L221.127 217.324C219.473 217.71 218.444 219.363 218.831 221.019C219.218 222.676 220.873 223.702 222.526 223.315" fill="#F9F9F9"/>
</g>
</g>
<defs>
<filter id="filter0_d" x="-87.9316" y="-38.5125" width="650.093" height="710.721" filterUnits="userSpaceOnUse" color-interpolation-filters="sRGB">
<feFlood flood-opacity="0" result="BackgroundImageFix"/>
<feColorMatrix in="SourceAlpha" type="matrix" values="0 0 0 0 0 0 0 0 0 0 0 0 0 0 0 0 0 0 127 0"/>
<feOffset dx="20" dy="90"/>
<feGaussianBlur stdDeviation="79"/>
<feColorMatrix type="matrix" values="0 0 0 0 1 0 0 0 0 0.631373 0 0 0 0 0.0392157 0 0 0 0.2 0"/>
<feBlend mode="normal" in2="BackgroundImageFix" result="effect1_dropShadow"/>
<feBlend mode="normal" in="SourceGraphic" in2="effect1_dropShadow" result="shape"/>
</filter>
<clipPath id="clip0">
<rect width="112.301" height="112.301" fill="white" transform="matrix(-0.945516 0.325575 0.202111 0.979362 250.6 149.975)"/>
</clipPath>
</defs>
</svg>
