<svg width="651" height="676" viewBox="0 0 651 676" fill="none" xmlns="http://www.w3.org/2000/svg">
<g filter="url(#filter0_d)">
<path d="M206.963 101.101C169.995 114.823 151.512 121.684 142.788 137.882C134.064 154.079 138.508 173.288 147.394 211.706L181.399 358.715C190.285 397.132 194.728 416.341 208.973 424.013C223.218 431.685 241.702 424.824 278.67 411.102L364.426 379.271C368.823 377.639 371.021 376.823 372.866 375.306C374.711 373.79 376.053 371.695 378.738 367.505L466.303 230.863C469.712 225.543 471.417 222.883 471.968 219.918C472.519 216.953 471.848 214.052 470.506 208.251L445.694 100.982C436.807 62.5642 432.364 43.3554 418.119 35.6833C403.874 28.0113 385.39 34.8722 348.423 48.5939L206.963 101.101Z" fill="#004A95"/>
<path fill-rule="evenodd" clip-rule="evenodd" d="M381.65 363.226L466.346 231.061C467.141 229.82 467.843 228.724 468.46 227.735C459.911 236.771 448.479 237.722 436.054 238.756C417.744 240.28 397.275 241.983 380.688 269.995C366.284 294.321 371.717 313.5 376.627 330.831C380.44 344.292 383.938 356.639 377.578 369.417L381.65 363.226ZM377.198 370.158C377.329 369.911 377.455 369.664 377.578 369.417L375.123 373.15C375.751 372.333 376.414 371.359 377.198 370.158Z" fill="white"/>
<g clip-path="url(#clip0)">
<mask id="mask0" mask-type="alpha" maskUnits="userSpaceOnUse" x="257" y="185" width="81" height="80">
<path fill-rule="evenodd" clip-rule="evenodd" d="M322.022 185.205L257.634 200.245L272.674 264.636L337.063 249.596L322.022 185.205Z" fill="white"/>
</mask>
<g mask="url(#mask0)">
<path fill-rule="evenodd" clip-rule="evenodd" d="M319.786 244.726C318.049 245.132 316.564 246.174 314.993 247.277C305.514 254.672 292.425 255.373 282.325 249.101C268.998 240.815 264.891 223.233 273.171 209.907C277.18 203.454 283.463 198.95 290.869 197.221C298.278 195.49 305.91 196.747 312.359 200.756C322.462 207.028 327.626 219.074 325.216 230.736C324.92 232.634 324.638 234.482 325.048 236.237C325.457 237.99 326.471 239.614 327.366 241.048C328.102 242.228 329.217 244.008 328.89 244.533C328.575 245.062 326.469 244.837 325.081 244.696C323.415 244.53 321.524 244.333 319.786 244.726V244.726ZM304.935 257.101C309.512 256.032 313.894 253.988 317.739 250.986C318.89 250.18 319.967 249.423 320.821 249.223C321.805 249 323.233 249.147 324.612 249.289C327.44 249.576 330.961 249.935 332.811 246.969C334.652 244.002 332.785 241.011 331.281 238.604C330.54 237.419 329.777 236.194 329.541 235.188C329.348 234.361 329.5 233.213 329.757 231.552C332.537 218.123 326.532 204.125 314.792 196.836C307.297 192.177 298.429 190.716 289.822 192.726C281.215 194.737 273.908 199.972 269.253 207.47C259.628 222.962 264.4 243.393 279.892 253.018C287.487 257.739 296.537 259.063 304.935 257.101V257.101Z" fill="#F9F9F9"/>
</g>
<path fill-rule="evenodd" clip-rule="evenodd" d="M286.506 231.926C288.16 231.54 289.201 229.884 288.814 228.227C288.427 226.571 286.787 225.542 285.133 225.928L285.106 225.934C283.453 226.32 282.423 227.973 282.81 229.63C283.197 231.286 284.852 232.312 286.506 231.926" fill="#F9F9F9"/>
<path fill-rule="evenodd" clip-rule="evenodd" d="M298.516 229.121C300.169 228.734 301.211 227.079 300.824 225.422C300.437 223.766 298.8 222.736 297.143 223.123L297.116 223.129C295.463 223.515 294.433 225.168 294.82 226.825C295.207 228.481 296.862 229.507 298.516 229.121" fill="#F9F9F9"/>
<path fill-rule="evenodd" clip-rule="evenodd" d="M310.526 226.315C312.18 225.929 313.221 224.274 312.835 222.617C312.448 220.96 310.808 219.931 309.154 220.317L309.127 220.324C307.473 220.71 306.444 222.363 306.831 224.019C307.218 225.676 308.873 226.702 310.526 226.315" fill="#F9F9F9"/>
</g>
</g>
<defs>
<filter id="filter0_d" x="0.0683594" y="-35.5125" width="650.093" height="710.721" filterUnits="userSpaceOnUse" color-interpolation-filters="sRGB">
<feFlood flood-opacity="0" result="BackgroundImageFix"/>
<feColorMatrix in="SourceAlpha" type="matrix" values="0 0 0 0 0 0 0 0 0 0 0 0 0 0 0 0 0 0 127 0"/>
<feOffset dx="20" dy="90"/>
<feGaussianBlur stdDeviation="79"/>
<feColorMatrix type="matrix" values="0 0 0 0 0 0 0 0 0 0.431373 0 0 0 0 0.701961 0 0 0 0.2 0"/>
<feBlend mode="normal" in2="BackgroundImageFix" result="effect1_dropShadow"/>
<feBlend mode="normal" in="SourceGraphic" in2="effect1_dropShadow" result="shape"/>
</filter>
<clipPath id="clip0">
<rect width="112.301" height="112.301" fill="white" transform="matrix(-0.945516 0.325575 0.202111 0.979362 338.6 152.975)"/>
</clipPath>
</defs>
</svg>
