<svg width="21" height="20" viewBox="0 0 21 20" fill="none" xmlns="http://www.w3.org/2000/svg">
<g clip-path="url(#clip0)">
<path d="M14.6668 17.5V15.8333C14.6668 14.9493 14.3156 14.1014 13.6905 13.4763C13.0654 12.8512 12.2176 12.5 11.3335 12.5H4.66683C3.78277 12.5 2.93493 12.8512 2.30981 13.4763C1.68469 14.1014 1.3335 14.9493 1.3335 15.8333V17.5" stroke="#002677" stroke-width="2" stroke-linecap="round" stroke-linejoin="round"/>
<path d="M7.99984 9.16667C9.84079 9.16667 11.3332 7.67428 11.3332 5.83333C11.3332 3.99238 9.84079 2.5 7.99984 2.5C6.15889 2.5 4.6665 3.99238 4.6665 5.83333C4.6665 7.67428 6.15889 9.16667 7.99984 9.16667Z" stroke="#002677" stroke-width="2" stroke-linecap="round" stroke-linejoin="round"/>
<path d="M19.6665 17.5V15.8333C19.666 15.0948 19.4201 14.3773 18.9676 13.7936C18.5152 13.2099 17.8816 12.793 17.1665 12.6083" stroke="#002677" stroke-width="2" stroke-linecap="round" stroke-linejoin="round"/>
<path d="M13.8335 2.60834C14.5505 2.79192 15.186 3.20892 15.6399 3.7936C16.0937 4.37827 16.34 5.09736 16.34 5.8375C16.34 6.57765 16.0937 7.29674 15.6399 7.88141C15.186 8.46609 14.5505 8.88309 13.8335 9.06667" stroke="#002677" stroke-width="2" stroke-linecap="round" stroke-linejoin="round"/>
</g>
<defs>
<clipPath id="clip0">
<rect width="20" height="20" fill="white" transform="translate(0.5)"/>
</clipPath>
</defs>
</svg>
